<mxfile host="drawio-plugin" modified="2022-03-30T13:35:21.795Z" agent="5.0 (Windows NT 6.2; Win64; x64) AppleWebKit/537.36 (KHTML, like Gecko) Chrome/87.0.4280.141 Safari/537.36" etag="B68pD89hvIZYpCxItL-n" version="15.5.4" type="embed"><diagram name="Page-1" id="74b105a0-9070-1c63-61bc-23e55f88626e"><mxGraphModel dx="1195" dy="734" grid="1" gridSize="10" guides="1" tooltips="1" connect="1" arrows="1" fold="1" page="1" pageScale="1.5" pageWidth="1169" pageHeight="826" background="none" math="0" shadow="0"><root><mxCell id="0" style=";html=1;"/><mxCell id="1" style=";html=1;" parent="0"/><mxCell id="xgUjwFEwwZGImHJtpXot-18" value="&lt;h1&gt;&lt;font style=&quot;font-size: 30px&quot;&gt;DimNet&lt;/font&gt;&lt;/h1&gt;&lt;p&gt;&lt;font style=&quot;font-size: 15px&quot;&gt;本例将9x9x80x80的光场图像超分为9x9x160x160，超分倍率为2，batch size为4。&lt;/font&gt;&lt;/p&gt;" style="text;html=1;strokeColor=none;fillColor=none;spacing=5;spacingTop=-20;whiteSpace=wrap;overflow=hidden;rounded=0;labelBackgroundColor=none;labelBorderColor=none;fontColor=default;" parent="1" vertex="1"><mxGeometry x="122" y="330" width="250" height="140" as="geometry"/></mxCell><mxCell id="xgUjwFEwwZGImHJtpXot-33" value="" style="shape=cube;whiteSpace=wrap;html=1;boundedLbl=1;backgroundOutline=1;darkOpacity=0.05;darkOpacity2=0.1;size=20;" parent="1" vertex="1"><mxGeometry x="215" y="524" width="90" height="90" as="geometry"/></mxCell><mxCell id="xgUjwFEwwZGImHJtpXot-36" value="" style="shape=cube;whiteSpace=wrap;html=1;boundedLbl=1;backgroundOutline=1;darkOpacity=0.05;darkOpacity2=0.1;size=20;" parent="1" vertex="1"><mxGeometry x="605" y="444" width="90" height="90" as="geometry"/></mxCell><mxCell id="xgUjwFEwwZGImHJtpXot-37" value="" style="shape=cube;whiteSpace=wrap;html=1;boundedLbl=1;backgroundOutline=1;darkOpacity=0.05;darkOpacity2=0.1;size=20;" parent="1" vertex="1"><mxGeometry x="638" y="474" width="90" height="90" as="geometry"/></mxCell><mxCell id="xgUjwFEwwZGImHJtpXot-38" value="" style="shape=cube;whiteSpace=wrap;html=1;boundedLbl=1;backgroundOutline=1;darkOpacity=0.05;darkOpacity2=0.1;size=20;" parent="1" vertex="1"><mxGeometry x="450" y="604" width="90" height="90" as="geometry"/></mxCell><mxCell id="xgUjwFEwwZGImHJtpXot-39" value="" style="shape=cube;whiteSpace=wrap;html=1;boundedLbl=1;backgroundOutline=1;darkOpacity=0.05;darkOpacity2=0.1;size=20;" parent="1" vertex="1"><mxGeometry x="480" y="634" width="90" height="90" as="geometry"/></mxCell><mxCell id="xgUjwFEwwZGImHJtpXot-40" value="" style="shape=cube;whiteSpace=wrap;html=1;boundedLbl=1;backgroundOutline=1;darkOpacity=0.05;darkOpacity2=0.1;size=20;" parent="1" vertex="1"><mxGeometry x="883" y="603" width="90" height="90" as="geometry"/></mxCell><mxCell id="xgUjwFEwwZGImHJtpXot-41" value="" style="shape=cube;whiteSpace=wrap;html=1;boundedLbl=1;backgroundOutline=1;darkOpacity=0.05;darkOpacity2=0.1;size=20;" parent="1" vertex="1"><mxGeometry x="920" y="633" width="90" height="90" as="geometry"/></mxCell><mxCell id="xgUjwFEwwZGImHJtpXot-42" value="" style="shape=cube;whiteSpace=wrap;html=1;boundedLbl=1;backgroundOutline=1;darkOpacity=0.05;darkOpacity2=0.1;size=20;" parent="1" vertex="1"><mxGeometry x="1212" y="414" width="90" height="486" as="geometry"/></mxCell><mxCell id="xgUjwFEwwZGImHJtpXot-43" value="" style="shape=cube;whiteSpace=wrap;html=1;boundedLbl=1;backgroundOutline=1;darkOpacity=0.05;darkOpacity2=0.1;size=20;" parent="1" vertex="1"><mxGeometry x="1412.5" y="534" width="90" height="90" as="geometry"/></mxCell><mxCell id="xgUjwFEwwZGImHJtpXot-47" value="" style="edgeStyle=elbowEdgeStyle;elbow=horizontal;endArrow=classic;html=1;rounded=0;shadow=0;shape=flexArrow;strokeColor=#000000;fillColor=#0D0D0D;entryX=0.009;entryY=0.707;entryDx=0;entryDy=0;entryPerimeter=0;" parent="1" target="xgUjwFEwwZGImHJtpXot-36" edge="1"><mxGeometry width="50" height="50" relative="1" as="geometry"><mxPoint x="305" y="584" as="sourcePoint"/><mxPoint x="600" y="503" as="targetPoint"/><Array as="points"><mxPoint x="345" y="544"/></Array></mxGeometry></mxCell><mxCell id="xgUjwFEwwZGImHJtpXot-49" value="" style="edgeStyle=elbowEdgeStyle;elbow=horizontal;endArrow=classic;html=1;rounded=0;shadow=0;exitX=0.993;exitY=0.682;exitDx=0;exitDy=0;exitPerimeter=0;entryX=-0.015;entryY=0.659;entryDx=0;entryDy=0;entryPerimeter=0;shape=flexArrow;strokeColor=#0F0F0F;fillColor=#0A0A0A;" parent="1" target="xgUjwFEwwZGImHJtpXot-38" edge="1"><mxGeometry width="50" height="50" relative="1" as="geometry"><mxPoint x="304.3699999999999" y="584.3800000000001" as="sourcePoint"/><mxPoint x="385" y="651.96" as="targetPoint"/><Array as="points"><mxPoint x="345" y="614"/></Array></mxGeometry></mxCell><mxCell id="xgUjwFEwwZGImHJtpXot-68" value="" style="edgeStyle=elbowEdgeStyle;elbow=horizontal;endArrow=classic;html=1;rounded=0;shadow=0;strokeColor=#0F0F0F;fillColor=#0A0A0A;shape=flexArrow;entryX=-0.044;entryY=0.2;entryDx=0;entryDy=0;entryPerimeter=0;" parent="1" target="xgUjwFEwwZGImHJtpXot-42" edge="1"><mxGeometry width="50" height="50" relative="1" as="geometry"><mxPoint x="728" y="511" as="sourcePoint"/><mxPoint x="992" y="511" as="targetPoint"/><Array as="points"><mxPoint x="790" y="504"/><mxPoint x="740" y="534"/><mxPoint x="800" y="534"/></Array></mxGeometry></mxCell><mxCell id="xgUjwFEwwZGImHJtpXot-69" value="" style="edgeStyle=elbowEdgeStyle;elbow=horizontal;endArrow=classic;html=1;rounded=0;shadow=0;strokeColor=#0F0F0F;fillColor=#0A0A0A;shape=flexArrow;exitX=0.981;exitY=0.337;exitDx=0;exitDy=0;exitPerimeter=0;entryX=0.011;entryY=0.163;entryDx=0;entryDy=0;entryPerimeter=0;" parent="1" source="xgUjwFEwwZGImHJtpXot-39" target="vCRjL0DatX_ZH1RsZxBJ-36" edge="1"><mxGeometry width="50" height="50" relative="1" as="geometry"><mxPoint x="600" y="664" as="sourcePoint"/><mxPoint x="712" y="664" as="targetPoint"/></mxGeometry></mxCell><mxCell id="xgUjwFEwwZGImHJtpXot-71" value="" style="edgeStyle=elbowEdgeStyle;elbow=horizontal;endArrow=classic;html=1;rounded=0;shadow=0;strokeColor=#0F0F0F;fillColor=#0A0A0A;shape=flexArrow;" parent="1" edge="1"><mxGeometry width="50" height="50" relative="1" as="geometry"><mxPoint x="1302" y="583" as="sourcePoint"/><mxPoint x="1412" y="583" as="targetPoint"/></mxGeometry></mxCell><mxCell id="xgUjwFEwwZGImHJtpXot-73" value="" style="shape=singleArrow;whiteSpace=wrap;html=1;fillColor=#000000;arrowWidth=0.4111111111111086;arrowSize=0.16666666666666652;" parent="1" vertex="1"><mxGeometry x="90" y="568" width="125" height="30" as="geometry"/></mxCell><mxCell id="xgUjwFEwwZGImHJtpXot-74" value="" style="shape=singleArrow;whiteSpace=wrap;html=1;fillColor=#000000;arrowWidth=0.29999999999999244;arrowSize=0.1525423728813544;" parent="1" vertex="1"><mxGeometry x="1502.5" y="568" width="147.5" height="30" as="geometry"/></mxCell><mxCell id="xgUjwFEwwZGImHJtpXot-100" value="ReLu" style="text;html=1;strokeColor=none;fillColor=none;align=center;verticalAlign=middle;whiteSpace=wrap;rounded=0;shadow=0;" parent="1" vertex="1"><mxGeometry x="656" y="470" width="60" height="30" as="geometry"/></mxCell><mxCell id="xgUjwFEwwZGImHJtpXot-101" value="ReLu" style="text;html=1;strokeColor=none;fillColor=none;align=center;verticalAlign=middle;whiteSpace=wrap;rounded=0;shadow=0;" parent="1" vertex="1"><mxGeometry x="495" y="630" width="60" height="30" as="geometry"/></mxCell><mxCell id="xgUjwFEwwZGImHJtpXot-102" value="ReLu" style="text;html=1;strokeColor=none;fillColor=none;align=center;verticalAlign=middle;whiteSpace=wrap;rounded=0;shadow=0;" parent="1" vertex="1"><mxGeometry x="938" y="629" width="60" height="30" as="geometry"/></mxCell><mxCell id="xgUjwFEwwZGImHJtpXot-103" value="Conv4d" style="text;html=1;strokeColor=none;fillColor=none;align=center;verticalAlign=middle;whiteSpace=wrap;rounded=0;shadow=0;" parent="1" vertex="1"><mxGeometry x="465" y="598" width="60" height="30" as="geometry"/></mxCell><mxCell id="xgUjwFEwwZGImHJtpXot-104" value="Conv4d" style="text;html=1;strokeColor=none;fillColor=none;align=center;verticalAlign=middle;whiteSpace=wrap;rounded=0;shadow=0;" parent="1" vertex="1"><mxGeometry x="620" y="439" width="60" height="30" as="geometry"/></mxCell><mxCell id="xgUjwFEwwZGImHJtpXot-105" value="Conv4d" style="text;html=1;strokeColor=none;fillColor=none;align=center;verticalAlign=middle;whiteSpace=wrap;rounded=0;shadow=0;" parent="1" vertex="1"><mxGeometry x="902" y="597" width="60" height="30" as="geometry"/></mxCell><mxCell id="xgUjwFEwwZGImHJtpXot-108" value="&lt;h1&gt;Padder&lt;/h1&gt;" style="text;html=1;strokeColor=none;fillColor=none;spacing=5;spacingTop=-20;whiteSpace=wrap;overflow=hidden;rounded=0;shadow=0;" parent="1" vertex="1"><mxGeometry x="210" y="482" width="110" height="44" as="geometry"/></mxCell><mxCell id="xgUjwFEwwZGImHJtpXot-109" value="&lt;h1&gt;BottleNeck&lt;/h1&gt;" style="text;html=1;strokeColor=none;fillColor=none;spacing=5;spacingTop=-20;whiteSpace=wrap;overflow=hidden;rounded=0;shadow=0;" parent="1" vertex="1"><mxGeometry x="1179.5" y="374" width="155" height="44" as="geometry"/></mxCell><mxCell id="xgUjwFEwwZGImHJtpXot-110" value="&lt;h1&gt;ReconBlock&lt;/h1&gt;" style="text;html=1;strokeColor=none;fillColor=none;spacing=5;spacingTop=-20;whiteSpace=wrap;overflow=hidden;rounded=0;shadow=0;" parent="1" vertex="1"><mxGeometry x="1380" y="490" width="155" height="44" as="geometry"/></mxCell><mxCell id="xgUjwFEwwZGImHJtpXot-115" value="&lt;h1&gt;DimGroup&lt;/h1&gt;" style="text;html=1;strokeColor=none;fillColor=none;spacing=5;spacingTop=-20;whiteSpace=wrap;overflow=hidden;rounded=0;shadow=0;" parent="1" vertex="1"><mxGeometry x="699.5" y="924" width="155" height="38" as="geometry"/></mxCell><mxCell id="xgUjwFEwwZGImHJtpXot-117" value="4x9x9x80x80" style="text;html=1;strokeColor=none;fillColor=none;align=center;verticalAlign=middle;whiteSpace=wrap;rounded=0;shadow=0;dashed=1;labelBackgroundColor=default;labelBorderColor=default;fontColor=#000000;" parent="1" vertex="1"><mxGeometry x="103" y="552" width="90" height="30" as="geometry"/></mxCell><mxCell id="xgUjwFEwwZGImHJtpXot-118" value="4x1x9x9x88x88" style="text;html=1;strokeColor=none;fillColor=none;align=center;verticalAlign=middle;whiteSpace=wrap;rounded=0;shadow=0;dashed=1;labelBackgroundColor=default;labelBorderColor=default;fontColor=#000000;" parent="1" vertex="1"><mxGeometry x="430" y="479" width="90" height="30" as="geometry"/></mxCell><mxCell id="xgUjwFEwwZGImHJtpXot-119" value="4x324x1x1x80x80" style="text;html=1;strokeColor=none;fillColor=none;align=center;verticalAlign=middle;whiteSpace=wrap;rounded=0;shadow=0;dashed=1;labelBackgroundColor=default;labelBorderColor=default;fontColor=#000000;" parent="1" vertex="1"><mxGeometry x="810" y="482" width="90" height="30" as="geometry"/></mxCell><mxCell id="xgUjwFEwwZGImHJtpXot-120" value="4x1x9x9x88x88" style="text;html=1;strokeColor=none;fillColor=none;align=center;verticalAlign=middle;whiteSpace=wrap;rounded=0;shadow=0;dashed=1;labelBackgroundColor=default;labelBorderColor=default;fontColor=#000000;rotation=0;" parent="1" vertex="1"><mxGeometry x="349" y="624" width="90" height="30" as="geometry"/></mxCell><mxCell id="xgUjwFEwwZGImHJtpXot-121" value="" style="edgeStyle=elbowEdgeStyle;elbow=horizontal;endArrow=classic;html=1;rounded=0;shadow=0;strokeColor=#0F0F0F;fillColor=#0A0A0A;shape=flexArrow;entryX=-0.022;entryY=0.514;entryDx=0;entryDy=0;entryPerimeter=0;" parent="1" target="xgUjwFEwwZGImHJtpXot-42" edge="1"><mxGeometry width="50" height="50" relative="1" as="geometry"><mxPoint x="1012" y="664" as="sourcePoint"/><mxPoint x="991" y="664" as="targetPoint"/><Array as="points"/></mxGeometry></mxCell><mxCell id="xgUjwFEwwZGImHJtpXot-122" value="4x18x5x5x84x84" style="text;html=1;strokeColor=none;fillColor=none;align=center;verticalAlign=middle;whiteSpace=wrap;rounded=0;shadow=0;dashed=1;labelBackgroundColor=default;labelBorderColor=default;fontColor=#000000;" parent="1" vertex="1"><mxGeometry x="590" y="626" width="90" height="30" as="geometry"/></mxCell><mxCell id="xgUjwFEwwZGImHJtpXot-123" value="4x324x1x1x80x80" style="text;html=1;strokeColor=none;fillColor=none;align=center;verticalAlign=middle;whiteSpace=wrap;rounded=0;shadow=0;dashed=1;labelBackgroundColor=default;labelBorderColor=default;fontColor=#000000;" parent="1" vertex="1"><mxGeometry x="1022" y="624" width="90" height="30" as="geometry"/></mxCell><mxCell id="xgUjwFEwwZGImHJtpXot-124" value="4x324x1x1x80x80" style="text;html=1;strokeColor=none;fillColor=none;align=center;verticalAlign=middle;whiteSpace=wrap;rounded=0;shadow=0;dashed=1;labelBackgroundColor=default;labelBorderColor=default;fontColor=#000000;" parent="1" vertex="1"><mxGeometry x="1307" y="547" width="90" height="30" as="geometry"/></mxCell><mxCell id="xgUjwFEwwZGImHJtpXot-125" value="4x1x9x9x160x160" style="text;html=1;strokeColor=none;fillColor=none;align=center;verticalAlign=middle;whiteSpace=wrap;rounded=0;shadow=0;dashed=1;labelBackgroundColor=default;labelBorderColor=default;fontColor=#000000;" parent="1" vertex="1"><mxGeometry x="1512.5" y="548" width="90" height="30" as="geometry"/></mxCell><mxCell id="xgUjwFEwwZGImHJtpXot-126" value="(5x5x5x5)" style="text;html=1;strokeColor=none;fillColor=none;align=center;verticalAlign=middle;whiteSpace=wrap;rounded=0;shadow=0;dashed=1;labelBackgroundColor=none;labelBorderColor=none;fontColor=#000000;" parent="1" vertex="1"><mxGeometry x="447.5" y="582" width="90" height="30" as="geometry"/></mxCell><mxCell id="xgUjwFEwwZGImHJtpXot-127" value="(5x5x5x5)" style="text;html=1;strokeColor=none;fillColor=none;align=center;verticalAlign=middle;whiteSpace=wrap;rounded=0;shadow=0;dashed=1;labelBackgroundColor=none;labelBorderColor=none;fontColor=#000000;" parent="1" vertex="1"><mxGeometry x="872" y="581" width="90" height="30" as="geometry"/></mxCell><mxCell id="xgUjwFEwwZGImHJtpXot-128" value="(9x9x9x9)" style="text;html=1;strokeColor=none;fillColor=none;align=center;verticalAlign=middle;whiteSpace=wrap;rounded=0;shadow=0;dashed=1;labelBackgroundColor=none;labelBorderColor=none;fontColor=#000000;" parent="1" vertex="1"><mxGeometry x="600" y="420" width="90" height="30" as="geometry"/></mxCell><mxCell id="vCRjL0DatX_ZH1RsZxBJ-1" value="" style="shape=cube;whiteSpace=wrap;html=1;boundedLbl=1;backgroundOutline=1;darkOpacity=0.05;darkOpacity2=0.1;size=20;" parent="1" vertex="1"><mxGeometry x="392" y="750" width="90" height="90" as="geometry"/></mxCell><mxCell id="vCRjL0DatX_ZH1RsZxBJ-2" value="" style="shape=cube;whiteSpace=wrap;html=1;boundedLbl=1;backgroundOutline=1;darkOpacity=0.05;darkOpacity2=0.1;size=20;" parent="1" vertex="1"><mxGeometry x="422" y="780" width="90" height="90" as="geometry"/></mxCell><mxCell id="vCRjL0DatX_ZH1RsZxBJ-3" value="ReLu" style="text;html=1;strokeColor=none;fillColor=none;align=center;verticalAlign=middle;whiteSpace=wrap;rounded=0;shadow=0;" parent="1" vertex="1"><mxGeometry x="437" y="776" width="60" height="30" as="geometry"/></mxCell><mxCell id="vCRjL0DatX_ZH1RsZxBJ-4" value="Conv4d" style="text;html=1;strokeColor=none;fillColor=none;align=center;verticalAlign=middle;whiteSpace=wrap;rounded=0;shadow=0;" parent="1" vertex="1"><mxGeometry x="407" y="744" width="60" height="30" as="geometry"/></mxCell><mxCell id="vCRjL0DatX_ZH1RsZxBJ-5" value="(3x3x3x3)" style="text;html=1;strokeColor=none;fillColor=none;align=center;verticalAlign=middle;whiteSpace=wrap;rounded=0;shadow=0;dashed=1;labelBackgroundColor=none;labelBorderColor=none;fontColor=#000000;" parent="1" vertex="1"><mxGeometry x="392" y="724" width="90" height="30" as="geometry"/></mxCell><mxCell id="vCRjL0DatX_ZH1RsZxBJ-11" value="" style="shape=cube;whiteSpace=wrap;html=1;boundedLbl=1;backgroundOutline=1;darkOpacity=0.05;darkOpacity2=0.1;size=20;" parent="1" vertex="1"><mxGeometry x="540" y="750" width="90" height="90" as="geometry"/></mxCell><mxCell id="vCRjL0DatX_ZH1RsZxBJ-12" value="" style="shape=cube;whiteSpace=wrap;html=1;boundedLbl=1;backgroundOutline=1;darkOpacity=0.05;darkOpacity2=0.1;size=20;" parent="1" vertex="1"><mxGeometry x="570" y="780" width="90" height="90" as="geometry"/></mxCell><mxCell id="vCRjL0DatX_ZH1RsZxBJ-13" value="ReLu" style="text;html=1;strokeColor=none;fillColor=none;align=center;verticalAlign=middle;whiteSpace=wrap;rounded=0;shadow=0;" parent="1" vertex="1"><mxGeometry x="585" y="776" width="60" height="30" as="geometry"/></mxCell><mxCell id="vCRjL0DatX_ZH1RsZxBJ-14" value="Conv4d" style="text;html=1;strokeColor=none;fillColor=none;align=center;verticalAlign=middle;whiteSpace=wrap;rounded=0;shadow=0;" parent="1" vertex="1"><mxGeometry x="555" y="744" width="60" height="30" as="geometry"/></mxCell><mxCell id="vCRjL0DatX_ZH1RsZxBJ-15" value="(3x3x3x3)" style="text;html=1;strokeColor=none;fillColor=none;align=center;verticalAlign=middle;whiteSpace=wrap;rounded=0;shadow=0;dashed=1;labelBackgroundColor=none;labelBorderColor=none;fontColor=#000000;" parent="1" vertex="1"><mxGeometry x="540" y="724" width="90" height="30" as="geometry"/></mxCell><mxCell id="vCRjL0DatX_ZH1RsZxBJ-16" value="" style="shape=cube;whiteSpace=wrap;html=1;boundedLbl=1;backgroundOutline=1;darkOpacity=0.05;darkOpacity2=0.1;size=20;" parent="1" vertex="1"><mxGeometry x="870" y="750" width="90" height="90" as="geometry"/></mxCell><mxCell id="vCRjL0DatX_ZH1RsZxBJ-17" value="" style="shape=cube;whiteSpace=wrap;html=1;boundedLbl=1;backgroundOutline=1;darkOpacity=0.05;darkOpacity2=0.1;size=20;" parent="1" vertex="1"><mxGeometry x="900" y="780" width="90" height="90" as="geometry"/></mxCell><mxCell id="vCRjL0DatX_ZH1RsZxBJ-18" value="ReLu" style="text;html=1;strokeColor=none;fillColor=none;align=center;verticalAlign=middle;whiteSpace=wrap;rounded=0;shadow=0;" parent="1" vertex="1"><mxGeometry x="915" y="776" width="60" height="30" as="geometry"/></mxCell><mxCell id="vCRjL0DatX_ZH1RsZxBJ-19" value="Conv4d" style="text;html=1;strokeColor=none;fillColor=none;align=center;verticalAlign=middle;whiteSpace=wrap;rounded=0;shadow=0;" parent="1" vertex="1"><mxGeometry x="885" y="744" width="60" height="30" as="geometry"/></mxCell><mxCell id="vCRjL0DatX_ZH1RsZxBJ-20" value="(3x3x3x3)" style="text;html=1;strokeColor=none;fillColor=none;align=center;verticalAlign=middle;whiteSpace=wrap;rounded=0;shadow=0;dashed=1;labelBackgroundColor=none;labelBorderColor=none;fontColor=#000000;" parent="1" vertex="1"><mxGeometry x="1032" y="724" width="90" height="30" as="geometry"/></mxCell><mxCell id="vCRjL0DatX_ZH1RsZxBJ-21" value="" style="shape=cube;whiteSpace=wrap;html=1;boundedLbl=1;backgroundOutline=1;darkOpacity=0.05;darkOpacity2=0.1;size=20;" parent="1" vertex="1"><mxGeometry x="1032" y="750" width="90" height="90" as="geometry"/></mxCell><mxCell id="vCRjL0DatX_ZH1RsZxBJ-22" value="" style="shape=cube;whiteSpace=wrap;html=1;boundedLbl=1;backgroundOutline=1;darkOpacity=0.05;darkOpacity2=0.1;size=20;" parent="1" vertex="1"><mxGeometry x="1062" y="780" width="90" height="90" as="geometry"/></mxCell><mxCell id="vCRjL0DatX_ZH1RsZxBJ-23" value="ReLu" style="text;html=1;strokeColor=none;fillColor=none;align=center;verticalAlign=middle;whiteSpace=wrap;rounded=0;shadow=0;" parent="1" vertex="1"><mxGeometry x="1077" y="776" width="60" height="30" as="geometry"/></mxCell><mxCell id="vCRjL0DatX_ZH1RsZxBJ-24" value="Conv4d" style="text;html=1;strokeColor=none;fillColor=none;align=center;verticalAlign=middle;whiteSpace=wrap;rounded=0;shadow=0;" parent="1" vertex="1"><mxGeometry x="1047" y="744" width="60" height="30" as="geometry"/></mxCell><mxCell id="vCRjL0DatX_ZH1RsZxBJ-25" value="(3x3x3x3)" style="text;html=1;strokeColor=none;fillColor=none;align=center;verticalAlign=middle;whiteSpace=wrap;rounded=0;shadow=0;dashed=1;labelBackgroundColor=none;labelBorderColor=none;fontColor=#000000;" parent="1" vertex="1"><mxGeometry x="862" y="724" width="90" height="30" as="geometry"/></mxCell><mxCell id="vCRjL0DatX_ZH1RsZxBJ-26" value="" style="edgeStyle=elbowEdgeStyle;elbow=horizontal;endArrow=classic;html=1;rounded=0;shadow=0;exitX=0.993;exitY=0.682;exitDx=0;exitDy=0;exitPerimeter=0;shape=flexArrow;strokeColor=#0F0F0F;fillColor=#0A0A0A;" parent="1" edge="1"><mxGeometry width="50" height="50" relative="1" as="geometry"><mxPoint x="304.3699999999999" y="584.3800000000001" as="sourcePoint"/><mxPoint x="394" y="807" as="targetPoint"/><Array as="points"><mxPoint x="345" y="614"/></Array></mxGeometry></mxCell><mxCell id="vCRjL0DatX_ZH1RsZxBJ-27" value="" style="edgeStyle=elbowEdgeStyle;elbow=horizontal;endArrow=classic;html=1;rounded=0;shadow=0;strokeColor=#0F0F0F;fillColor=#0A0A0A;shape=flexArrow;exitX=0.981;exitY=0.337;exitDx=0;exitDy=0;exitPerimeter=0;" parent="1" edge="1"><mxGeometry width="50" height="50" relative="1" as="geometry"><mxPoint x="512" y="806.8299999999999" as="sourcePoint"/><mxPoint x="542" y="807" as="targetPoint"/></mxGeometry></mxCell><mxCell id="vCRjL0DatX_ZH1RsZxBJ-29" value="" style="edgeStyle=elbowEdgeStyle;elbow=horizontal;endArrow=classic;html=1;rounded=0;shadow=0;strokeColor=#0F0F0F;fillColor=#0A0A0A;shape=flexArrow;" parent="1" edge="1"><mxGeometry width="50" height="50" relative="1" as="geometry"><mxPoint x="660" y="804" as="sourcePoint"/><mxPoint x="732" y="804" as="targetPoint"/></mxGeometry></mxCell><mxCell id="vCRjL0DatX_ZH1RsZxBJ-30" value="" style="edgeStyle=elbowEdgeStyle;elbow=horizontal;endArrow=classic;html=1;rounded=0;shadow=0;strokeColor=#0F0F0F;fillColor=#0A0A0A;shape=flexArrow;" parent="1" edge="1"><mxGeometry width="50" height="50" relative="1" as="geometry"><mxPoint x="990" y="806" as="sourcePoint"/><mxPoint x="1032" y="806" as="targetPoint"/></mxGeometry></mxCell><mxCell id="vCRjL0DatX_ZH1RsZxBJ-31" value="" style="edgeStyle=elbowEdgeStyle;elbow=horizontal;endArrow=classic;html=1;rounded=0;shadow=0;strokeColor=#0F0F0F;fillColor=#0A0A0A;shape=flexArrow;entryX=-0.011;entryY=0.805;entryDx=0;entryDy=0;entryPerimeter=0;" parent="1" target="xgUjwFEwwZGImHJtpXot-42" edge="1"><mxGeometry width="50" height="50" relative="1" as="geometry"><mxPoint x="1152" y="806" as="sourcePoint"/><mxPoint x="1194" y="806" as="targetPoint"/></mxGeometry></mxCell><mxCell id="vCRjL0DatX_ZH1RsZxBJ-36" value="" style="shape=cube;whiteSpace=wrap;html=1;boundedLbl=1;backgroundOutline=1;darkOpacity=0.05;darkOpacity2=0.1;size=20;" parent="1" vertex="1"><mxGeometry x="732" y="624" width="90" height="246" as="geometry"/></mxCell><mxCell id="vCRjL0DatX_ZH1RsZxBJ-40" value="" style="edgeStyle=elbowEdgeStyle;elbow=horizontal;endArrow=classic;html=1;rounded=0;shadow=0;strokeColor=#0F0F0F;fillColor=#0A0A0A;shape=flexArrow;" parent="1" edge="1"><mxGeometry width="50" height="50" relative="1" as="geometry"><mxPoint x="822" y="660" as="sourcePoint"/><mxPoint x="882" y="660" as="targetPoint"/></mxGeometry></mxCell><mxCell id="vCRjL0DatX_ZH1RsZxBJ-41" value="" style="edgeStyle=elbowEdgeStyle;elbow=horizontal;endArrow=classic;html=1;rounded=0;shadow=0;strokeColor=#0F0F0F;fillColor=#0A0A0A;shape=flexArrow;" parent="1" edge="1"><mxGeometry width="50" height="50" relative="1" as="geometry"><mxPoint x="822" y="805" as="sourcePoint"/><mxPoint x="872" y="805" as="targetPoint"/></mxGeometry></mxCell><mxCell id="vCRjL0DatX_ZH1RsZxBJ-42" value="&lt;h1 style=&quot;font-size: 20px&quot;&gt;SubBottleNeck&lt;/h1&gt;" style="text;html=1;strokeColor=none;fillColor=none;spacing=5;spacingTop=-20;whiteSpace=wrap;overflow=hidden;rounded=0;shadow=0;fontSize=20;" parent="1" vertex="1"><mxGeometry x="707" y="591" width="155" height="44" as="geometry"/></mxCell><mxCell id="vCRjL0DatX_ZH1RsZxBJ-45" value="4x324x1x1x80x80" style="text;html=1;strokeColor=none;fillColor=none;align=center;verticalAlign=middle;whiteSpace=wrap;rounded=0;shadow=0;dashed=1;labelBackgroundColor=default;labelBorderColor=default;fontColor=#000000;" parent="1" vertex="1"><mxGeometry x="1119" y="746" width="90" height="30" as="geometry"/></mxCell><mxCell id="vCRjL0DatX_ZH1RsZxBJ-46" value="4x9x7x7x84x84" style="text;html=1;strokeColor=none;fillColor=none;align=center;verticalAlign=middle;whiteSpace=wrap;rounded=0;shadow=0;dashed=1;labelBackgroundColor=default;labelBorderColor=default;fontColor=#000000;" parent="1" vertex="1"><mxGeometry x="495" y="894" width="90" height="30" as="geometry"/></mxCell><mxCell id="vCRjL0DatX_ZH1RsZxBJ-48" value="" style="endArrow=none;html=1;fillColor=#000000;fontSize=20;entryX=0.5;entryY=0;entryDx=0;entryDy=0;dashed=1;endFill=0;" parent="1" target="vCRjL0DatX_ZH1RsZxBJ-46" edge="1"><mxGeometry width="50" height="50" relative="1" as="geometry"><mxPoint x="512" y="804" as="sourcePoint"/><mxPoint x="382" y="884" as="targetPoint"/></mxGeometry></mxCell><mxCell id="vCRjL0DatX_ZH1RsZxBJ-49" style="edgeStyle=none;rounded=0;orthogonalLoop=1;jettySize=auto;html=1;exitX=0.75;exitY=1;exitDx=0;exitDy=0;dashed=1;endArrow=none;endFill=0;fillColor=#000000;fontSize=20;" parent="1" source="vCRjL0DatX_ZH1RsZxBJ-46" target="vCRjL0DatX_ZH1RsZxBJ-46" edge="1"><mxGeometry relative="1" as="geometry"/></mxCell><mxCell id="vCRjL0DatX_ZH1RsZxBJ-50" value="" style="endArrow=none;html=1;fillColor=#000000;fontSize=20;entryX=0.5;entryY=0;entryDx=0;entryDy=0;dashed=1;endFill=0;" parent="1" edge="1"><mxGeometry width="50" height="50" relative="1" as="geometry"><mxPoint x="680" y="804" as="sourcePoint"/><mxPoint x="708" y="894" as="targetPoint"/></mxGeometry></mxCell><mxCell id="vCRjL0DatX_ZH1RsZxBJ-51" value="4x18x5x5x84x84" style="text;html=1;strokeColor=none;fillColor=none;align=center;verticalAlign=middle;whiteSpace=wrap;rounded=0;shadow=0;dashed=1;labelBackgroundColor=default;labelBorderColor=default;fontColor=#000000;" parent="1" vertex="1"><mxGeometry x="669" y="894" width="90" height="30" as="geometry"/></mxCell><mxCell id="vCRjL0DatX_ZH1RsZxBJ-54" value="4x36x3x3x82x82" style="text;html=1;strokeColor=none;fillColor=none;align=center;verticalAlign=middle;whiteSpace=wrap;rounded=0;shadow=0;dashed=1;labelBackgroundColor=default;labelBorderColor=default;fontColor=#000000;" parent="1" vertex="1"><mxGeometry x="987" y="894" width="90" height="30" as="geometry"/></mxCell><mxCell id="vCRjL0DatX_ZH1RsZxBJ-55" value="" style="endArrow=none;html=1;fillColor=#000000;fontSize=20;entryX=0.5;entryY=0;entryDx=0;entryDy=0;dashed=1;endFill=0;" parent="1" edge="1"><mxGeometry width="50" height="50" relative="1" as="geometry"><mxPoint x="998" y="804" as="sourcePoint"/><mxPoint x="1026" y="894" as="targetPoint"/></mxGeometry></mxCell><mxCell id="vCRjL0DatX_ZH1RsZxBJ-56" value="4x324x1x1x80x80" style="text;html=1;strokeColor=none;fillColor=none;align=center;verticalAlign=middle;whiteSpace=wrap;rounded=0;shadow=0;dashed=1;labelBackgroundColor=default;labelBorderColor=default;fontColor=#000000;" parent="1" vertex="1"><mxGeometry x="1162" y="896" width="90" height="30" as="geometry"/></mxCell><mxCell id="vCRjL0DatX_ZH1RsZxBJ-57" value="" style="endArrow=none;html=1;fillColor=#000000;fontSize=20;entryX=0.5;entryY=0;entryDx=0;entryDy=0;dashed=1;endFill=0;" parent="1" edge="1"><mxGeometry width="50" height="50" relative="1" as="geometry"><mxPoint x="1173" y="806" as="sourcePoint"/><mxPoint x="1201" y="896" as="targetPoint"/></mxGeometry></mxCell></root></mxGraphModel></diagram></mxfile>